<svg width="24" height="20" viewBox="0 0 24 20" fill="none" xmlns="http://www.w3.org/2000/svg">
<path d="M23.6667 9.75423C23.6667 9.31568 23.5058 8.94166 23.1841 8.63218L15.2054 0.653897C14.8768 0.329049 14.5126 0.166626 14.1129 0.166626C13.6752 0.166626 13.3175 0.304953 13.0398 0.58161C12.7622 0.858267 12.6234 1.20319 12.6234 1.61638C12.6234 1.83882 12.6651 2.04067 12.7485 2.22193C12.832 2.40319 12.9442 2.56118 13.0851 2.69591L15.8074 5.45357L20.137 9.41725L20.704 8.48596L16.2554 8.22962H1.89409C1.42507 8.22962 1.0477 8.37149 0.761967 8.65522C0.476238 8.93897 0.333374 9.30531 0.333374 9.75423C0.333374 10.2032 0.476238 10.5695 0.761967 10.8532C1.0477 11.137 1.42507 11.2788 1.89409 11.2788H16.2554L20.704 11.0225L20.137 10.1005L15.8074 14.0549L13.0851 16.808C12.9454 16.9397 12.8335 17.097 12.7494 17.2797C12.6654 17.4625 12.6234 17.6651 12.6234 17.8875C12.6234 18.3007 12.7622 18.6456 13.0398 18.9223C13.3175 19.199 13.6752 19.3373 14.1129 19.3373C14.5091 19.3373 14.8679 19.1802 15.1894 18.866L23.1841 10.8763C23.5058 10.5668 23.6667 10.1928 23.6667 9.75423Z" fill="black"/>
</svg>
